# xmcd
#
# Track frame offsets: 
#        150
#        24011
#        50429
#        71173
#        87476
#        107961
#        128431
#        145560
#        161373
#        186840
#        204561
#
# Disc length: 3039 seconds
#
# Revision: 0
# Processed by: cddbd v1.5.2PL0 Copyright (c) Steve Scherf et al.
# Submitted via: ExactAudioCopyFreeDBPlugin 1.0
#
DISCID=8e0bdd0b
DTITLE=Hoffmann Andi and B-Goes - living in the big wide world
DYEAR=2004
DGENRE=CH
TTITLE0=exit 20
TTITLE1=riding to new orleans
TTITLE2=living in the big wide world
TTITLE3=el rancho hotel
TTITLE4=crystal waters
TTITLE5=i liebe di für immer
TTITLE6=fingertips
TTITLE7=see it in your eyes
TTITLE8=kangaroo cafe
TTITLE9=travel till i die
TTITLE10=you are the sunshine in my world
EXTD=
EXTT0=
EXTT1=
EXTT2=
EXTT3=
EXTT4=
EXTT5=
EXTT6=
EXTT7=
EXTT8=
EXTT9=
EXTT10=
PLAYORDER=
